<?xml version="1.0" standalone="no"?>
<!DOCTYPE svg PUBLIC "-//W3C//DTD SVG 20010904//EN"
 "http://www.w3.org/TR/2001/REC-SVG-20010904/DTD/svg10.dtd">
<svg version="1.0" xmlns="http://www.w3.org/2000/svg"
 width="128.000000pt" height="128.000000pt" viewBox="0 0 128.000000 128.000000"
 preserveAspectRatio="xMidYMid meet">

<g transform="translate(0.000000,128.000000) scale(0.100000,-0.100000)"
fill="#000000" stroke="none">
<path d="M970 1255 c-14 -8 -44 -23 -67 -34 -44 -21 -73 -62 -73 -106 0 -20
-5 -25 -25 -25 -60 0 -115 -57 -115 -120 0 -16 -6 -20 -36 -20 -42 0 -93 -44
-95 -82 -1 -13 -2 -29 -3 -37 0 -8 -15 -15 -34 -17 -18 -2 -42 -9 -53 -14 -24
-13 -49 -61 -49 -95 0 -20 -5 -25 -25 -25 -68 0 -123 -68 -111 -135 4 -17 20
-44 36 -60 17 -16 30 -34 30 -39 0 -6 -79 -90 -175 -186 -116 -116 -175 -182
-175 -196 0 -25 29 -54 56 -54 12 0 88 69 194 175 96 96 179 175 183 175 5 0
22 -11 39 -25 41 -35 84 -32 162 10 78 43 86 53 93 105 5 38 7 40 40 40 46 0
90 44 99 96 5 35 9 39 36 41 58 4 102 50 100 105 -1 23 3 28 24 28 60 0 114
51 114 107 0 31 2 33 36 33 63 0 116 73 99 137 -7 30 -165 197 -207 219 -34
18 -66 18 -98 -1z m108 -60 l37 -35 -62 28 c-67 28 -79 42 -38 42 15 0 41 -14
63 -35z m7 -68 c111 -51 155 -83 155 -116 0 -29 -39 -71 -66 -71 -41 0 -277
115 -294 144 -28 48 23 115 75 100 11 -4 70 -29 130 -57z m-138 -137 c70 -33
134 -68 141 -77 21 -29 15 -70 -15 -93 -34 -26 -44 -24 -188 42 -113 51 -155
84 -155 119 0 26 43 69 69 69 11 0 78 -27 148 -60z m-141 -135 c65 -31 126
-63 136 -72 41 -37 10 -116 -46 -115 -30 0 -266 108 -283 130 -18 22 -16 72 4
94 26 29 64 22 189 -37z m-116 -149 c102 -49 127 -66 134 -89 13 -35 -19 -81
-58 -85 -32 -4 -263 100 -288 130 -44 51 0 124 67 110 11 -2 76 -32 145 -66z
m-155 -126 c72 -34 136 -68 143 -77 21 -28 15 -70 -14 -92 -15 -12 -33 -21
-42 -21 -8 0 -71 26 -139 57 -123 56 -163 87 -163 125 0 24 43 68 67 68 10 0
76 -27 148 -60z m-5 -200 c47 -24 50 -30 12 -30 -19 0 -43 12 -68 35 -35 31
-36 34 -12 25 15 -5 45 -19 68 -30z m-130 17 c0 -21 -336 -350 -350 -342 -8 5
45 65 161 181 96 96 177 174 181 174 5 0 8 -6 8 -13z"/>
<path d="M926 1131 c-9 -14 66 -61 99 -61 29 0 15 30 -25 50 -42 22 -66 25
-74 11z"/>
<path d="M797 1003 c-16 -15 -4 -30 38 -51 55 -27 65 -27 65 -4 0 11 -16 26
-45 40 -51 25 -49 24 -58 15z"/>
<path d="M657 863 c-14 -14 -6 -23 41 -47 29 -15 53 -21 61 -16 19 11 6 27
-39 50 -42 21 -53 24 -63 13z"/>
<path d="M516 722 c-2 -4 -2 -12 2 -17 9 -13 79 -45 97 -45 29 0 14 30 -25 50
-42 21 -66 25 -74 12z"/>
<path d="M386 593 c-16 -16 -2 -35 40 -53 25 -11 50 -20 55 -20 14 0 11 37 -3
43 -7 3 -29 12 -49 21 -20 8 -39 12 -43 9z"/>
</g>
</svg>
